<?xml version="1.0" encoding="utf-8"?>
<!-- Generator: Adobe Illustrator 22.1.0, SVG Export Plug-In . SVG Version: 6.00 Build 0)  -->
<svg version="1.1" id="chart" xmlns="http://www.w3.org/2000/svg" xmlns:xlink="http://www.w3.org/1999/xlink" x="0px" y="0px"
	 viewBox="0 0 6000 3000" style="enable-background:new 0 0 6000 3000;" xml:space="preserve">
<style type="text/css">
	.st0{fill:none;stroke:#333333;stroke-width:4;stroke-miterlimit:10;}
	.st1{fill:none;stroke:#FFC000;stroke-width:16;stroke-miterlimit:10;}
	.st2{font-family:'OpenSans';}
	.st3{font-size:84px;}
	.st4{fill:#C00000;}
	.st5{fill:#FFFFFF;}
	.st6{font-size:127.4185px;}
	.st7{fill:#59922B;}
	.st8{fill:#4F81BD;}
	.st9{fill:#B178B1;}
	.st10{fill:#453D3F;}
	.st11{fill:#D17905;}
</style>
<g id="scale">
	<path id="baseline.svg" class="st0" d="M336.1,2689.7v-3.2h5309.1v3.2H336.1z"/>
	<path id="_x31_0_x5F_v.svg" class="st0" d="M339.3,2561.2h-3.2V119h3.2V2561.2z"/>
	<path id="_x32_0_x5F_v.svg" class="st0" d="M1394.7,2560.1h-3.2V117.9h3.2V2560.1z"/>
	<path id="_x33_0_x5F_v.svg" class="st1" d="M2462.9,2560.1h-3.2V117.9h3.2V2560.1z"/>
	<path id="_x34_0_x5F_v.svg" class="st0" d="M3518.4,2561.2h-3.2V119h3.2V2561.2z"/>
	<path id="_x35_0_x5F_v.svg" class="st0" d="M4576,2561.2h-3.2V119h3.2V2561.2z"/>
	<path id="_x36_0_x5F_v.svg" class="st0" d="M5644.1,2561.2h-3.2V119h3.2V2561.2z"/>
	<path id="_x31_0_x5F_b.svg" class="st0" d="M336.1,2580.3h3.2v212.4h-3.2V2580.3z"/>
	<path id="_x32_0_x5F_b.svg" class="st0" d="M1392.6,2580.3h3.2v212.4h-3.2V2580.3z"/>
	<path id="_x33_0_x5F_b.svg" class="st1" d="M2458.7,2582.4h3.2v212.4h-3.2V2582.4z"/>
	<path id="_x34_0_x5F_b.svg" class="st0" d="M3515.2,2580.3h3.2v212.4h-3.2V2580.3z"/>
	<path id="_x35_0_x5F_b.svg" class="st0" d="M4573.8,2581.4h3.2v212.4h-3.2V2581.4z"/>
	<path id="_x36_0_x5F_b.svg" class="st0" d="M5642,2581.4h3.2v212.4h-3.2V2581.4z"/>
	<path id="_x31_0_x5F_01s.svg" class="st0" d="M435.9,2633.4h3.2v106.2h-3.2V2633.4z"/>
	<path id="_x31_0_x5F_02s.svg" class="st0" d="M541,2633.4h3.2v106.2H541V2633.4z"/>
	<path id="_x31_0_x5F_03s.svg" class="st0" d="M647.2,2633.4h3.2v106.2h-3.2V2633.4z"/>
	<path id="_x31_0_x5F_04s.svg" class="st0" d="M754.5,2633.4h3.2v106.2h-3.2V2633.4z"/>
	<path id="_x31_0_x5F_05s.svg" class="st0" d="M858.5,2633.4h3.2v106.2h-3.2V2633.4z"/>
	<path id="_x31_0_x5F_06s.svg" class="st0" d="M965.8,2633.4h3.2v106.2h-3.2V2633.4z"/>
	<path id="_x31_0_x5F_07s.svg" class="st0" d="M1071.9,2633.4h3.2v106.2h-3.2V2633.4z"/>
	<path id="_x31_0_x5F_08s.svg" class="st0" d="M1181.3,2633.4h3.2v106.2h-3.2V2633.4z"/>
	<path id="_x31_0_x5F_09s.svg" class="st0" d="M1283.3,2633.4h3.2v106.2h-3.2V2633.4z"/>
	<path id="_x32_0_x5F_01s.svg" class="st0" d="M1498.8,2632.3h3.2v106.2h-3.2V2632.3z"/>
	<path id="_x32_0_x5F_02s.svg" class="st0" d="M1603.9,2632.3h3.2v106.2h-3.2V2632.3z"/>
	<path id="_x32_0_x5F_03s.svg" class="st0" d="M1710.1,2632.3h3.2v106.2h-3.2V2632.3z"/>
	<path id="_x32_0_x5F_04s.svg" class="st0" d="M1817.3,2632.3h3.2v106.2h-3.2V2632.3z"/>
	<path id="_x32_0_x5F_05s.svg" class="st0" d="M1921.4,2632.3h3.2v106.2h-3.2V2632.3z"/>
	<path id="_x32_0_x5F_06s.svg" class="st0" d="M2028.7,2632.3h3.2v106.2h-3.2V2632.3z"/>
	<path id="_x32_0_x5F_07s.svg" class="st0" d="M2134.8,2632.3h3.2v106.2h-3.2V2632.3z"/>
	<path id="_x32_0_x5F_08s.svg" class="st0" d="M2244.2,2632.3h3.2v106.2h-3.2V2632.3z"/>
	<path id="_x32_0_x5F_09s.svg" class="st0" d="M2346.1,2632.3h3.2v106.2h-3.2V2632.3z"/>
	<path id="_x33_0_x5F_01s.svg" class="st0" d="M2560.6,2632.3h3.2v106.2h-3.2V2632.3z"/>
	<path id="_x33_0_x5F_02s.svg" class="st0" d="M2665.7,2632.3h3.2v106.2h-3.2V2632.3z"/>
	<path id="_x33_0_x5F_03s.svg" class="st0" d="M2771.9,2632.3h3.2v106.2h-3.2V2632.3z"/>
	<path id="_x33_0_x5F_04s.svg" class="st0" d="M2879.2,2632.3h3.2v106.2h-3.2V2632.3z"/>
	<path id="_x33_0_x5F_05s.svg" class="st0" d="M2983.2,2632.3h3.2v106.2h-3.2V2632.3z"/>
	<path id="_x33_0_x5F_06s.svg" class="st0" d="M3090.5,2632.3h3.2v106.2h-3.2V2632.3z"/>
	<path id="_x33_0_x5F_07s.svg" class="st0" d="M3196.7,2632.3h3.2v106.2h-3.2V2632.3z"/>
	<path id="_x33_0_x5F_08s.svg" class="st0" d="M3306,2632.3h3.2v106.2h-3.2V2632.3z"/>
	<path id="_x33_0_x5F_09s.svg" class="st0" d="M3408,2632.3h3.2v106.2h-3.2V2632.3z"/>
	<path id="_x34_0_x5F_01s.svg" class="st0" d="M3622.4,2633.4h3.2v106.2h-3.2V2633.4z"/>
	<path id="_x34_0_x5F_02s.svg" class="st0" d="M3727.6,2633.4h3.2v106.2h-3.2V2633.4z"/>
	<path id="_x34_0_x5F_03s.svg" class="st0" d="M3833.7,2633.4h3.2v106.2h-3.2V2633.4z"/>
	<path id="_x34_0_x5F_04s.svg" class="st0" d="M3941,2633.4h3.2v106.2h-3.2V2633.4z"/>
	<path id="_x34_0_x5F_05s.svg" class="st0" d="M4045,2633.4h3.2v106.2h-3.2V2633.4z"/>
	<path id="_x34_0_x5F_06s.svg" class="st0" d="M4152.3,2633.4h3.2v106.2h-3.2V2633.4z"/>
	<path id="_x34_0_x5F_07s.svg" class="st0" d="M4258.5,2633.4h3.2v106.2h-3.2V2633.4z"/>
	<path id="_x34_0_x5F_08s.svg" class="st0" d="M4367.8,2633.4h3.2v106.2h-3.2V2633.4z"/>
	<path id="_x34_0_x5F_09s.svg" class="st0" d="M4469.8,2633.4h3.2v106.2h-3.2V2633.4z"/>
	<path id="_x35_0_x5F_01s.svg" class="st0" d="M4686.4,2633.4h3.2v106.2h-3.2V2633.4z"/>
	<path id="_x35_0_x5F_02s.svg" class="st0" d="M4791.5,2633.4h3.2v106.2h-3.2V2633.4z"/>
	<path id="_x35_0_x5F_03s.svg" class="st0" d="M4897.7,2633.4h3.2v106.2h-3.2V2633.4z"/>
	<path id="_x35_0_x5F_04s.svg" class="st0" d="M5004.9,2633.4h3.2v106.2h-3.2V2633.4z"/>
	<path id="_x35_0_x5F_05s.svg" class="st0" d="M5109,2633.4h3.2v106.2h-3.2V2633.4z"/>
	<path id="_x35_0_x5F_06s.svg" class="st0" d="M5216.2,2633.4h3.2v106.2h-3.2V2633.4z"/>
	<path id="_x35_0_x5F_07s.svg" class="st0" d="M5322.4,2633.4h3.2v106.2h-3.2V2633.4z"/>
	<path id="_x35_0_x5F_08s.svg" class="st0" d="M5431.8,2633.4h3.2v106.2h-3.2V2633.4z"/>
	<path id="_x35_0_x5F_09s.svg" class="st0" d="M5533.7,2633.4h3.2v106.2h-3.2V2633.4z"/>
</g>
<g id="legend">
	<text transform="matrix(1 0 0 1 255.9387 2925.085)" class="st2 st3">1990</text>
	<text transform="matrix(1 0 0 1 1304.4866 2925.085)" class="st2 st3">2000</text>
	<text transform="matrix(1 0 0 1 2375.8635 2925.085)" class="st2 st3">2010</text>
	<text transform="matrix(1 0 0 1 3431.3147 2925.085)" class="st2 st3">2020</text>
	<text transform="matrix(1 0 0 1 4485.7012 2924.0234)" class="st2 st3">2030</text>
	<text transform="matrix(1 0 0 1 5558.1387 2925.085)" class="st2 st3">2040</text>
</g>
<g id="projects">
	<g id="RI">
		<rect x="336.1" y="241.2" class="st4" width="4561.6" height="229.3"/>
		<text transform="matrix(1 0 0 1 2134.8313 402.5526)" class="st5 st2 st6">Regesta Imperii (ab 1979)</text>
	</g>
	<g id="DFD">
		<rect x="2668.9" y="614" class="st7" width="2443.2" height="229.3"/>
		<text transform="matrix(1 0 0 1 2834.5706 774.3242)" class="st5 st2 st6">Digitales Familiennamenwörterbuch</text>
	</g>
	<g id="CVMA">
		<rect x="337.2" y="1005.9" class="st8" width="4240.9" height="229.3"/>
		<text transform="matrix(1 0 0 1 1696.2991 1159.8311)" class="st5 st2 st6">Corpus Vitrearum Medii Aevi (ab 1979)</text>
	</g>
	<g id="Funde">
		<rect x="2630.4" y="1410.2" class="st9" width="377.9" height="229.3"/>
		<text transform="matrix(1 0 0 1 2721.3689 1577.304)" class="st5 st2 st6">IBR</text>
	</g>
	<g id="CM">
		<rect x="2858.4" y="1811.4" class="st10" width="545.9" height="229.3"/>
		<text id="Corpus_Monodicum" transform="matrix(1.0039 0 0 1 2988.175 1966.5813)" class="st5 st2 st6">BMB</text>
	</g>
	<g id="Goethe">
		<rect x="2992.8" y="2199.9" class="st11" width="2648.2" height="229.3"/>
		<text id="Corpus_Monodicum_1_" transform="matrix(1 0 0 1 3730.7483 2358.3428)" class="st5 st2 st6">Goethe PROPYLÄEN</text>
	</g>
</g>
</svg>
