<?xml version="1.0" encoding="utf-8"?>
<!-- Generator: Adobe Illustrator 22.1.0, SVG Export Plug-In . SVG Version: 6.00 Build 0)  -->
<svg version="1.1" id="chart" xmlns="http://www.w3.org/2000/svg" xmlns:xlink="http://www.w3.org/1999/xlink" x="0px" y="0px"
	 viewBox="0 0 6000 3000" style="enable-background:new 0 0 6000 3000;" xml:space="preserve">
<style type="text/css">
	.st0{fill:none;stroke:#333333;stroke-width:4;stroke-miterlimit:10;}
	.st1{font-family:'OpenSans';}
	.st2{font-size:84px;}
	.st3{fill:#F49700;}
	.st4{fill:#FFFFFF;}
	.st5{font-size:127.4185px;}
	.st6{fill:#CCCCCC;}
</style>
<g id="scale">
	<path id="baseline.svg" class="st0" d="M336.1,2689.7v-3.2h5309.1v3.2H336.1z"/>
	<path id="_x31_0_x5F_v.svg" class="st0" d="M339.3,2561.2h-3.2V119h3.2V2561.2z"/>
	<path id="_x32_0_x5F_v.svg" class="st0" d="M1394.7,2560.1h-3.2V117.9h3.2V2560.1z"/>
	<path id="_x33_0_x5F_v.svg" class="st0" d="M2462.9,2560.1h-3.2V117.9h3.2V2560.1z"/>
	<path id="_x34_0_x5F_v.svg" class="st0" d="M3518.4,2561.2h-3.2V119h3.2V2561.2z"/>
	<path id="_x35_0_x5F_v.svg" class="st0" d="M4576,2561.2h-3.2V119h3.2V2561.2z"/>
	<path id="_x36_0_x5F_v.svg" class="st0" d="M5644.1,2561.2h-3.2V119h3.2V2561.2z"/>
	<path id="_x31_0_x5F_b.svg" class="st0" d="M336.1,2580.3h3.2v212.4h-3.2V2580.3z"/>
	<path id="_x32_0_x5F_b.svg" class="st0" d="M1392.6,2580.3h3.2v212.4h-3.2V2580.3z"/>
	<path id="_x33_0_x5F_b.svg" class="st0" d="M2458.7,2582.4h3.2v212.4h-3.2V2582.4z"/>
	<path id="_x34_0_x5F_b.svg" class="st0" d="M3515.2,2580.3h3.2v212.4h-3.2V2580.3z"/>
	<path id="_x35_0_x5F_b.svg" class="st0" d="M4573.8,2581.4h3.2v212.4h-3.2V2581.4z"/>
	<path id="_x36_0_x5F_b.svg" class="st0" d="M5642,2581.4h3.2v212.4h-3.2V2581.4z"/>
	<path id="_x31_0_x5F_01s.svg" class="st0" d="M435.9,2633.4h3.2v106.2h-3.2V2633.4z"/>
	<path id="_x31_0_x5F_02s.svg" class="st0" d="M541,2633.4h3.2v106.2H541V2633.4z"/>
	<path id="_x31_0_x5F_03s.svg" class="st0" d="M647.2,2633.4h3.2v106.2h-3.2V2633.4z"/>
	<path id="_x31_0_x5F_04s.svg" class="st0" d="M754.5,2633.4h3.2v106.2h-3.2V2633.4z"/>
	<path id="_x31_0_x5F_05s.svg" class="st0" d="M858.5,2633.4h3.2v106.2h-3.2V2633.4z"/>
	<path id="_x31_0_x5F_06s.svg" class="st0" d="M965.8,2633.4h3.2v106.2h-3.2V2633.4z"/>
	<path id="_x31_0_x5F_07s.svg" class="st0" d="M1071.9,2633.4h3.2v106.2h-3.2V2633.4z"/>
	<path id="_x31_0_x5F_08s.svg" class="st0" d="M1181.3,2633.4h3.2v106.2h-3.2V2633.4z"/>
	<path id="_x31_0_x5F_09s.svg" class="st0" d="M1283.3,2633.4h3.2v106.2h-3.2V2633.4z"/>
	<path id="_x32_0_x5F_01s.svg" class="st0" d="M1498.8,2632.3h3.2v106.2h-3.2V2632.3z"/>
	<path id="_x32_0_x5F_02s.svg" class="st0" d="M1603.9,2632.3h3.2v106.2h-3.2V2632.3z"/>
	<path id="_x32_0_x5F_03s.svg" class="st0" d="M1710.1,2632.3h3.2v106.2h-3.2V2632.3z"/>
	<path id="_x32_0_x5F_04s.svg" class="st0" d="M1817.3,2632.3h3.2v106.2h-3.2V2632.3z"/>
	<path id="_x32_0_x5F_05s.svg" class="st0" d="M1921.4,2632.3h3.2v106.2h-3.2V2632.3z"/>
	<path id="_x32_0_x5F_06s.svg" class="st0" d="M2028.7,2632.3h3.2v106.2h-3.2V2632.3z"/>
	<path id="_x32_0_x5F_07s.svg" class="st0" d="M2134.8,2632.3h3.2v106.2h-3.2V2632.3z"/>
	<path id="_x32_0_x5F_08s.svg" class="st0" d="M2244.2,2632.3h3.2v106.2h-3.2V2632.3z"/>
	<path id="_x32_0_x5F_09s.svg" class="st0" d="M2346.1,2632.3h3.2v106.2h-3.2V2632.3z"/>
	<path id="_x33_0_x5F_01s.svg" class="st0" d="M2560.6,2632.3h3.2v106.2h-3.2V2632.3z"/>
	<path id="_x33_0_x5F_02s.svg" class="st0" d="M2665.7,2632.3h3.2v106.2h-3.2V2632.3z"/>
	<path id="_x33_0_x5F_03s.svg" class="st0" d="M2771.9,2632.3h3.2v106.2h-3.2V2632.3z"/>
	<path id="_x33_0_x5F_04s.svg" class="st0" d="M2879.2,2632.3h3.2v106.2h-3.2V2632.3z"/>
	<path id="_x33_0_x5F_05s.svg" class="st0" d="M2983.2,2632.3h3.2v106.2h-3.2V2632.3z"/>
	<path id="_x33_0_x5F_06s.svg" class="st0" d="M3090.5,2632.3h3.2v106.2h-3.2V2632.3z"/>
	<path id="_x33_0_x5F_07s.svg" class="st0" d="M3196.7,2632.3h3.2v106.2h-3.2V2632.3z"/>
	<path id="_x33_0_x5F_08s.svg" class="st0" d="M3306,2632.3h3.2v106.2h-3.2V2632.3z"/>
	<path id="_x33_0_x5F_09s.svg" class="st0" d="M3408,2632.3h3.2v106.2h-3.2V2632.3z"/>
	<path id="_x34_0_x5F_01s.svg" class="st0" d="M3622.4,2633.4h3.2v106.2h-3.2V2633.4z"/>
	<path id="_x34_0_x5F_02s.svg" class="st0" d="M3727.6,2633.4h3.2v106.2h-3.2V2633.4z"/>
	<path id="_x34_0_x5F_03s.svg" class="st0" d="M3833.7,2633.4h3.2v106.2h-3.2V2633.4z"/>
	<path id="_x34_0_x5F_04s.svg" class="st0" d="M3941,2633.4h3.2v106.2h-3.2V2633.4z"/>
	<path id="_x34_0_x5F_05s.svg" class="st0" d="M4045,2633.4h3.2v106.2h-3.2V2633.4z"/>
	<path id="_x34_0_x5F_06s.svg" class="st0" d="M4152.3,2633.4h3.2v106.2h-3.2V2633.4z"/>
	<path id="_x34_0_x5F_07s.svg" class="st0" d="M4258.5,2633.4h3.2v106.2h-3.2V2633.4z"/>
	<path id="_x34_0_x5F_08s.svg" class="st0" d="M4367.8,2633.4h3.2v106.2h-3.2V2633.4z"/>
	<path id="_x34_0_x5F_09s.svg" class="st0" d="M4469.8,2633.4h3.2v106.2h-3.2V2633.4z"/>
	<path id="_x35_0_x5F_01s.svg" class="st0" d="M4686.4,2633.4h3.2v106.2h-3.2V2633.4z"/>
	<path id="_x35_0_x5F_02s.svg" class="st0" d="M4791.5,2633.4h3.2v106.2h-3.2V2633.4z"/>
	<path id="_x35_0_x5F_03s.svg" class="st0" d="M4897.7,2633.4h3.2v106.2h-3.2V2633.4z"/>
	<path id="_x35_0_x5F_04s.svg" class="st0" d="M5004.9,2633.4h3.2v106.2h-3.2V2633.4z"/>
	<path id="_x35_0_x5F_05s.svg" class="st0" d="M5109,2633.4h3.2v106.2h-3.2V2633.4z"/>
	<path id="_x35_0_x5F_06s.svg" class="st0" d="M5216.2,2633.4h3.2v106.2h-3.2V2633.4z"/>
	<path id="_x35_0_x5F_07s.svg" class="st0" d="M5322.4,2633.4h3.2v106.2h-3.2V2633.4z"/>
	<path id="_x35_0_x5F_08s.svg" class="st0" d="M5431.8,2633.4h3.2v106.2h-3.2V2633.4z"/>
	<path id="_x35_0_x5F_09s.svg" class="st0" d="M5533.7,2633.4h3.2v106.2h-3.2V2633.4z"/>
</g>
<g id="legend">
	<text transform="matrix(1 0 0 1 255.9387 2925.085)" class="st1 st2">1990</text>
	<text transform="matrix(1 0 0 1 1304.4866 2925.085)" class="st1 st2">2000</text>
	<text transform="matrix(1 0 0 1 2375.8635 2925.085)" class="st1 st2">2010</text>
	<text transform="matrix(1 0 0 1 3431.3147 2925.085)" class="st1 st2">2020</text>
	<text transform="matrix(1 0 0 1 4485.7012 2924.0234)" class="st1 st2">2030</text>
	<text transform="matrix(1 0 0 1 5558.1387 2925.085)" class="st1 st2">2040</text>
</g>
<g id="projects">
	<g id="RI">
		<rect x="2349" y="242.2" class="st3" width="2549.7" height="229.3"/>
		<text transform="matrix(1 0 0 1 2595.8313 404.5526)" font-family="'Open Sans'" class="st4 st1 st5">Regesta Imperii</text>
	</g>
	<g id="DFD">
		<rect x="2669.9" y="615" class="st3" width="2443.2" height="229.3"/>
		<text transform="matrix(1 0 0 1 2894.5706 778.3242)" class="st4 st1 st5">Digitales Familiennamenwörterbuch</text>
	</g>
	<g id="CVMA">
		<rect x="2457" y="1006.9" class="st3" width="2122.1" height="229.3"/>
		<text transform="matrix(1 0 0 1 2691.3062 1168.8311)" class="st4 st1 st5">Corpus Vitrearum</text>
	</g>
	<g id="Funde">
		<rect x="2661" y="1411.2" class="st3" width="448" height="229.3"/>
		<text transform="matrix(1 0 0 1 2862.5286 1575.3076)" class="st4 st1 st5">IBR</text>
	</g>
	<g id="CM">
		<rect x="2880" y="1812.4" class="st3" width="544" height="229.3"/>
		<text id="Corpus_Monodicum" transform="matrix(1.0039 0 0 1 3087.2266 1971.5813)" class="st4 st1 st5">BMB</text>
	</g>
	<g id="Goethe">
		<rect x="3513.5" y="2200.9" class="st3" width="2132.5" height="229.3"/>
		<text id="Corpus_Monodicum_1_" transform="matrix(1 0 0 1 3738.7483 2359.3428)" class="st4 st1 st5">Goethe PROPYLÄEN</text>
	</g>
</g>
<g>
	<path class="st4" d="M2505.5,380.7c-1.7,0.5-3.1,0.7-4.9,0.7c-14.9,0-36.7-52-36.7-69.3c0-6.4,1.5-8.5,3.6-10.3
		c-18.2,2.1-40,8.8-47,17.3c-1.5,2.1-2.4,5.5-2.4,9.7c0,27,28.8,88.3,49.2,88.3C2476.6,417.1,2492.5,401.6,2505.5,380.7"/>
	<path class="st4" d="M2496,300c18.8,0,37.6,3,37.6,13.7c0,21.5-13.7,47.6-20.6,47.6c-12.4,0-27.9-34.6-27.9-51.9
		C2485.1,301.5,2488.1,300,2496,300"/>
</g>
<g>
	<path class="st4" d="M2819.5,757.7c-1.7,0.5-3.1,0.7-4.9,0.7c-14.9,0-36.7-52-36.7-69.3c0-6.4,1.5-8.5,3.6-10.3
		c-18.2,2.1-40,8.8-47,17.3c-1.5,2.1-2.4,5.5-2.4,9.7c0,27,28.8,88.3,49.2,88.3C2790.6,794.1,2806.5,778.6,2819.5,757.7"/>
	<path class="st4" d="M2810,677c18.8,0,37.6,3,37.6,13.7c0,21.5-13.7,47.6-20.6,47.6c-12.4,0-27.9-34.6-27.9-51.9
		C2799.1,678.5,2802.1,677,2810,677"/>
</g>
<g>
	<path class="st4" d="M2599.5,1143.7c-1.7,0.5-3.1,0.7-4.9,0.7c-14.9,0-36.7-52-36.7-69.3c0-6.4,1.5-8.5,3.6-10.3
		c-18.2,2.1-40,8.8-47,17.3c-1.5,2.1-2.4,5.5-2.4,9.7c0,27,28.8,88.3,49.2,88.3C2570.6,1180.1,2586.5,1164.6,2599.5,1143.7"/>
	<path class="st4" d="M2590,1063c18.8,0,37.6,3,37.6,13.7c0,21.5-13.7,47.6-20.6,47.6c-12.4,0-27.9-34.6-27.9-51.9
		C2579.1,1064.5,2582.1,1063,2590,1063"/>
</g>
<g>
	<path class="st4" d="M2795.5,1549.7c-1.7,0.5-3.1,0.7-4.9,0.7c-14.9,0-36.7-52-36.7-69.3c0-6.4,1.5-8.5,3.6-10.3
		c-18.2,2.1-40,8.8-47,17.3c-1.5,2.1-2.4,5.5-2.4,9.7c0,27,28.8,88.3,49.2,88.3C2766.6,1586.1,2782.5,1570.6,2795.5,1549.7"/>
	<path class="st4" d="M2786,1469c18.8,0,37.6,3,37.6,13.7c0,21.5-13.7,47.6-20.6,47.6c-12.4,0-27.9-34.6-27.9-51.9
		C2775.1,1470.5,2778.1,1469,2786,1469"/>
</g>
<g>
	<path class="st4" d="M3651.5,2337.7c-1.7,0.5-3.1,0.7-4.9,0.7c-14.9,0-36.7-52-36.7-69.3c0-6.4,1.5-8.5,3.6-10.3
		c-18.2,2.1-40,8.8-47,17.3c-1.5,2.1-2.4,5.5-2.4,9.7c0,27,28.8,88.3,49.2,88.3C3622.6,2374.1,3638.5,2358.6,3651.5,2337.7"/>
	<path class="st4" d="M3642,2257c18.8,0,37.6,3,37.6,13.7c0,21.5-13.7,47.6-20.6,47.6c-12.4,0-27.9-34.6-27.9-51.9
		C3631.1,2258.5,3634.1,2257,3642,2257"/>
</g>
<g>
	<path class="st4" d="M3015.5,1949.7c-1.7,0.5-3.1,0.7-4.9,0.7c-14.9,0-36.7-52-36.7-69.3c0-6.4,1.5-8.5,3.6-10.3
		c-18.2,2.1-40,8.8-47,17.3c-1.5,2.1-2.4,5.5-2.4,9.7c0,27,28.8,88.3,49.2,88.3C2986.6,1986.1,3002.5,1970.6,3015.5,1949.7"/>
	<path class="st4" d="M3006,1869c18.8,0,37.6,3,37.6,13.7c0,21.5-13.7,47.6-20.6,47.6c-12.4,0-27.9-34.6-27.9-51.9
		C2995.1,1870.5,2998.1,1869,3006,1869"/>
</g>
<rect x="3118.7" y="1410.2" class="st6" width="2527.3" height="229.3"/>
<rect x="3433.9" y="1812.2" class="st6" width="2213.1" height="229.3"/>
<rect x="4587.8" y="1007.2" class="st6" width="1058.3" height="229.3"/>
<rect x="5122.9" y="615.2" class="st6" width="524.2" height="229.3"/>
<rect x="4907.8" y="242.1" class="st6" width="739.2" height="229.3"/>
</svg>
